# xmcd
#
# Track frame offsets:
# 150
# 10651
# 26794
# 40328
# 58401
# 75400
# 88838
# 106454
# 122717
# 137310
# 149456
# 164089
# 183774
# 200820
#
# Disc length: 2907 seconds
#
# Revision: 0
# Processed by: cddbd v1.4PL0 Copyright (c) Steve Scherf et al.
# Submitted via: Axialis_AX_CDPlayer 2.6
#
DISCID=c40b590e
DTITLE=Cezar and Paulinho - Os Gigantes
DYEAR=1900
DGENRE=
TTITLE0=Pé de Bode
TTITLE1=O Feijão e a Flor
TTITLE2=Vai de Roda
TTITLE3=Eu e Meu Pai
TTITLE4=Doeu Demais
TTITLE5=Asa Delta
TTITLE6=Boboca e Bobão
TTITLE7=Você Marcou Pra Mim
TTITLE8=Tchaca Tchaca na Butachaca
TTITLE9=Saco de Ouro
TTITLE10=Neto de Carreiro
TTITLE11=Santa Maria Do Brasil
TTITLE12=Viajante Solitário
TTITLE13=Dona do Meu Mundo
EXTD=
EXTT0=
EXTT1=
EXTT2=
EXTT3=
EXTT4=
EXTT5=
EXTT6=
EXTT7=
EXTT8=
EXTT9=
EXTT10=
EXTT11=
EXTT12=
EXTT13=
PLAYORDER=
